<?xml version="1.0" standalone="no"?>
<!DOCTYPE svg PUBLIC "-//W3C//DTD SVG 1.1//EN" "http://www.w3.org/Graphics/SVG/1.1/DTD/svg11.dtd">
<svg xmlns="http://www.w3.org/2000/svg">
<metadata>Copyright (C) 2021 by original authors @ fontello.com</metadata>
<defs>
<font id="offline-icon" horiz-adv-x="1000" >
<font-face font-family="offline-icon" font-weight="400" font-stretch="normal" units-per-em="1000" ascent="850" descent="-150" />
<missing-glyph horiz-adv-x="1000" />
<glyph glyph-name="people-group" unicode="&#xe800;" d="M807 563h85c33 0 59-7 78-23 20-16 30-40 30-75v-135c0-9 0-16 0-20 0-5-1-10-2-17-1-6-3-10-5-13-2-3-5-5-10-7-4-2-9-4-16-4h-33v-295c0-7-2-12-6-17-4-5-8-7-13-7h-48c-2 0-5 0-6 1-2 0-3 1-4 2-1 2-2 3-2 4-1 2-1 4-2 7-1 3-2 6-3 9-1-2-2-5-3-8-1-3-1-5-2-6 0-1-1-2-2-4-1-1-2-3-3-3-1-1-2-1-3-1-2-1-4-1-6-1h-45c-6 0-10 2-14 7-4 4-6 10-6 17v295h-34c-6 0-11 2-16 4-4 2-7 4-9 7-2 3-4 7-5 13-1 7-2 12-2 16 0 5 0 12 0 21v135c0 35 10 59 29 75 20 16 46 23 78 23z m43 20c-20 0-39 8-55 25-17 17-25 36-25 59 0 22 8 42 25 58 16 17 35 25 55 25 21 0 39-8 56-25 16-16 24-36 24-58 0-23-8-42-24-59-17-17-35-25-56-25z m-393-20h86c32 0 58-7 78-23 19-16 29-40 29-75v-151l-1-12-1-12-4-8-5-7-9-4-12-2h-34v-295c0-7-2-12-6-17-4-5-8-7-13-7h-47c-4 0-6 0-8 2-2 1-3 2-4 3-1 0-2 3-3 8-1 4-2 7-3 10-1-2-2-5-3-9-1-3-2-6-2-7-1-1-2-2-3-3-1-2-2-3-4-3-2-1-4-1-7-1h-45c-6 0-10 2-14 7-4 4-5 10-5 17v295h-35c-4 0-8 1-12 2-3 1-6 2-8 4-3 1-5 4-6 7-1 3-3 6-3 8-1 3-2 7-2 12-1 5-1 9-1 12v151c0 35 10 59 29 75 20 16 46 23 78 23z m43 20c-20 0-39 8-55 25-17 17-25 36-25 59 0 22 8 42 25 58 16 17 35 25 55 25 21 0 39-8 56-25 16-16 24-36 24-58 0-23-8-42-24-59-17-17-35-25-56-25z m-392-20h85c32 0 58-7 78-23 20-16 29-40 29-75v-135c0-9 0-16 0-20 0-5-1-10-2-17-1-6-3-10-5-13-2-3-5-5-9-7-5-2-10-4-16-4h-34v-295c0-7-2-12-6-17-4-5-8-7-13-7h-47c-4 0-6 0-8 2-2 1-3 2-4 3-1 0-2 3-3 8-1 4-2 7-3 10-1-2-2-5-3-9-1-3-2-6-2-7-1-1-2-2-3-3-1-2-2-3-4-3-2-1-4-1-7-1h-45c-5 0-10 2-14 7-4 4-5 10-5 17v295h-34c-7 0-12 2-16 4-4 2-8 5-10 8-2 3-4 8-5 14-1 7-2 13-2 17 0 5 0 12 0 21v136c0 63 36 94 108 94z m42 20c-20 0-39 8-55 25-17 17-25 36-25 59 0 22 8 42 25 58 16 17 35 25 55 25 21 0 39-8 56-25 16-16 25-36 25-58 0-23-9-42-25-59-17-17-35-25-56-25z" horiz-adv-x="1000" />

<glyph glyph-name="place" unicode="&#xe801;" d="M943 582l-113 97c-8 5-16 10-25 12-9 4-18 5-27 6h-326l39-265h287c8 0 18 2 27 5 9 3 18 8 25 13l113 97c6 4 9 11 9 17 0 7-3 13-9 18v0z m-538 220h-48c-6 0-12-2-17-7-4-5-7-12-7-19v-185h-158c-8 0-18-2-27-5-10-4-19-8-25-13l-113-97c-7-5-10-11-10-17 0-7 3-13 10-18l113-97c6-5 15-9 25-13 9-3 19-5 27-5h158v-450c0-7 3-13 7-18 5-5 11-8 17-8h48c6 0 12 3 17 8 4 5 7 11 7 18v900c0 7-3 14-7 19-5 5-11 7-17 7v0z" horiz-adv-x="952" />

<glyph glyph-name="tiktok" unicode="&#xe802;" d="M816 571c-41 9-79 31-107 63-28 32-46 72-50 114v19h-144v-570c0-25-7-50-22-70-15-21-36-36-60-44-24-8-50-8-74-1-24 8-45 22-60 43-14 18-22 39-24 61-2 23 2 45 12 65 10 20 25 37 44 49 20 12 42 18 64 18 12 0 25-2 37-5v145c-14 2-28 3-42 2-51-1-101-17-143-46-42-30-75-71-94-118-20-48-25-100-15-150 10-50 35-97 70-133 37-38 84-63 135-74 52-11 105-6 153 14 49 20 91 54 120 97 29 44 45 95 45 147v292c58-42 127-64 199-64v142c-14 0-28 1-42 4h-2z" horiz-adv-x="1000" />

<glyph glyph-name="twitter" unicode="&#xe803;" d="M985 644c-35-15-72-25-111-30 40 24 71 62 85 107-38-22-80-38-123-47-29 31-68 52-110 59-43 7-86 0-124-20-37-21-67-53-85-92-17-39-22-82-12-124-77 4-153 24-222 59-68 35-129 84-178 144-17-29-26-62-26-98 0-32 8-63 23-91 15-29 36-53 63-70-31 1-61 9-88 24v-2c0-45 16-89 44-123 28-35 68-59 112-68-29-8-59-9-88-3 13-39 37-72 69-97 33-24 72-37 113-38-69-54-154-83-242-83-15 0-31 1-46 3 89-57 192-88 298-88 357 0 552 296 552 553 0 8 0 16-1 25 38 27 71 61 97 100l0 0v0z" horiz-adv-x="1000" />

<glyph glyph-name="user-calendar" unicode="&#xe804;" d="M500 450c100 0 150-121 80-192-71-71-192-20-192 80 0 62 50 112 112 112z m225-450h-450v56c0 63 100 113 225 113 125 0 225-50 225-113v-56z m125-50h-700v550h700v-550z m-150 900v-100h-400v100h-100v-100h-50c-26 0-52-10-71-29-18-19-29-44-29-71v-700c0-27 11-52 29-71 19-19 45-29 71-29h700c27 0 52 10 71 29 19 19 29 44 29 71v700c0 27-10 52-29 71-19 19-44 29-71 29h-50v100h-100z" horiz-adv-x="1000" />

<glyph glyph-name="user-warning" unicode="&#xe805;" d="M286 850c47 0 93-19 126-52 34-34 52-79 52-127 0-47-18-92-52-126-33-33-79-52-126-52-48 0-93 19-127 52-33 34-52 79-52 126 0 48 19 93 52 127 34 33 79 52 127 52z m252-311c-18 19-30 44-35 70-5 26-3 54 7 79 10 25 26 47 48 63 21 16 47 25 74 27 27 2 54-3 77-16 24-12 44-31 57-54 14-24 21-50 20-77-1-27-10-53-25-75-74 16-152 10-223-17z m-237-475h-11c-187 0-290 65-290 195v55c0 29 11 56 31 76 21 20 48 31 76 31h269c-59-70-90-158-90-250 0-37 5-73 15-107z m699 107c0-85-34-167-94-227-60-60-142-94-227-94-86 0-167 34-228 94-60 60-94 142-94 227 0 86 34 167 94 228 61 60 142 94 228 94 85 0 167-34 227-94 60-61 94-142 94-228z m-321 179c-10 0-19-4-26-10-6-7-10-16-10-26v-143c0-9 4-18 10-25 7-6 16-10 26-10 9 0 18 4 25 10 7 7 10 16 10 25v143c0 10-3 19-10 26-7 6-16 10-25 10z m0-366c11 0 23 5 31 13 9 8 13 20 13 32 0 11-4 23-13 31-8 9-20 13-31 13-12 0-24-4-32-13-8-8-13-20-13-31 0-12 5-24 13-32 8-8 20-13 32-13z" horiz-adv-x="1000" />

<glyph glyph-name="video" unicode="&#xe806;" d="M156 750c-41 0-81-16-110-46-29-29-46-69-46-110v-438c0-41 17-81 46-110 29-29 69-46 110-46h438c41 0 81 17 110 46 30 29 46 69 46 110v61l149-116c41-32 101-3 101 49v450c0 52-60 81-101 49l-149-116v61c0 41-16 81-46 110-29 30-69 46-110 46h-438z m594-296l188 146v-450l-188 147v157z m-62 140v-438c0-12-3-24-8-36-4-11-11-21-20-30-9-9-19-16-30-20-12-5-24-7-36-7h-438c-25 0-48 9-66 27-18 18-27 41-27 66v438c0 25 9 49 27 66 18 18 41 28 66 28h438c12 0 24-3 36-8 11-4 21-11 30-20 9-9 16-19 20-30 5-12 8-24 8-36z" horiz-adv-x="1000" />

<glyph glyph-name="vk" unicode="&#xe807;" d="M654 850h-307c-281 0-347-66-347-346v-307c0-281 66-347 347-347h307c280 0 346 66 346 347v307c0 280-67 346-346 346z m153-713h-72c-28 0-36 21-86 72-43 41-62 47-72 47-15 0-20-4-20-25v-66c0-17-5-28-52-28-77 0-162 47-222 134-90 127-115 222-115 242 0 10 4 20 25 20h72c19 0 26-8 33-28 36-104 96-195 120-195 10 0 14 4 14 28v107c-3 49-29 54-29 71 0 9 7 17 18 17h115c15 0 21-8 21-27v-144c0-16 7-21 11-21 9 0 17 5 34 22 52 59 90 149 90 149 4 11 13 21 31 21h73c22 0 27-12 22-27-9-43-98-168-98-168-8-13-11-19 0-33 7-10 33-32 50-52 31-35 55-65 61-85 7-21-3-31-24-31l0 0z" horiz-adv-x="1000" />

<glyph glyph-name="warning" unicode="&#xe808;" d="M546 255h-91v227h91v-227z m0-182h-91v91h91v-91z m-546-137h1000l-500 864-500-864z" horiz-adv-x="1000" />

<glyph glyph-name="youtube" unicode="&#xe809;" d="M503 725h6c51 0 311-2 382-21 21-6 40-17 56-32 15-16 26-35 32-57 6-23 11-55 14-87l0-7 2-16 0-6c4-58 5-111 5-123v-4c0-13-1-70-5-129l-1-7 0-6c-3-36-8-72-15-98-6-21-17-40-32-56-16-15-35-27-56-32-73-20-348-21-387-21h-8c-20 0-100 0-183 3l-11 0-5 1-11 0-11 0c-69 3-135 8-166 17-21 5-40 17-56 32-15 16-26 35-32 56-7 26-12 62-15 98l0 6-1 7c-3 42-5 85-5 127l0 8c0 13 1 60 4 111l0 6 1 4 0 6 2 16 0 7c3 32 8 64 14 87 6 22 17 41 32 57 16 15 35 26 56 32 31 8 97 13 166 16l11 1 11 0 5 0 11 1c59 2 119 3 178 3h12v0z m-103-201v-301l260 151-260 150z" horiz-adv-x="1000" />

<glyph glyph-name="account" unicode="&#xe80a;" d="M500 850c66 0 130-26 177-73 47-47 73-111 73-177 0-66-26-130-73-177-47-47-111-73-177-73-66 0-130 26-177 73-47 47-73 111-73 177 0 66 26 130 73 177 47 47 111 73 177 73v0z m0-625c276 0 500-112 500-250v-125h-1000v125c0 138 224 250 500 250z" horiz-adv-x="1000" />

<glyph glyph-name="at" unicode="&#xe80b;" d="M500 200c41 0 75 15 106 45 29 30 44 65 44 105 0 41-15 75-44 106-31 29-65 44-106 44-40 0-75-15-105-44-30-31-45-65-45-106 0-40 15-75 45-105 30-30 65-45 105-45z m0 650c138 0 255-50 353-147 97-98 147-215 147-353v-72c0-50-17-93-50-128-35-33-75-50-125-50-60 0-109 25-147 75-50-50-109-75-178-75-68 0-127 25-177 73-48 50-73 108-73 177 0 69 25 128 73 177 50 48 109 73 177 73 69 0 128-25 177-73 48-49 73-108 73-177v-72c0-21 8-39 23-54 15-16 33-24 52-24 21 0 39 8 54 24 15 15 21 33 21 54v72c0 110-38 204-117 283-79 79-173 117-283 117-109 0-203-38-282-117-79-79-118-173-118-283 0-109 39-203 118-282 79-80 173-118 282-118h250v-100h-250c-137 0-255 50-352 147-98 98-148 216-148 353 0 138 50 255 148 353 97 97 215 147 352 147z" horiz-adv-x="1000" />

<glyph glyph-name="date-time" unicode="&#xe80c;" d="M806-94c36 0 72 14 98 40 26 26 40 62 40 98 0 37-14 73-40 99-26 26-62 40-98 40-37 0-73-14-99-40-26-26-40-62-40-99 0-36 14-72 40-98 26-26 62-40 99-40z m0-56c51 0 101 20 137 57 37 36 57 86 57 137 0 52-20 102-57 138-36 36-86 57-137 57-52 0-101-21-138-57-36-36-57-86-57-138 0-51 21-101 57-137 37-37 86-57 138-57z m0 292c7 0 14-3 19-8 5-6 8-13 8-20v-58l20-20c5-5 8-12 8-19 0-7-3-14-8-20-5-5-12-8-20-8-7 0-14 3-19 8l-36 36v81c0 7 3 14 8 20 5 5 12 8 20 8z m-584 236h-55v-56h55v56z m-55 55c-15 0-29-5-40-16-10-10-16-24-16-39v-56c0-14 6-29 16-39 11-10 25-16 40-16h55c15 0 29 6 40 16 10 10 16 25 16 39v56c0 15-6 29-16 39-11 11-25 16-40 16h-55z m277-55h-55v-56h55v56z m-55 55c-15 0-29-5-39-16-11-10-17-24-17-39v-56c0-14 6-29 17-39 10-10 24-16 39-16h55c15 0 29 6 40 16 10 10 16 25 16 39v56c0 15-6 29-16 39-11 11-25 16-40 16h-55z m278-55h-56v-56h56v56z m-56 55c-15 0-29-5-39-16-11-10-16-24-16-39v-56c0-14 5-29 16-39 10-10 24-16 39-16h56c14 0 29 6 39 16 10 10 16 25 16 39v56c0 15-6 29-16 39-10 11-25 16-39 16h-56z m-389-277h-55v-56h55v56z m-55 55c-15 0-29-6-40-16-10-11-16-25-16-39v-56c0-15 6-29 16-39 11-11 25-17 40-17h55c15 0 29 6 40 17 10 10 16 24 16 39v56c0 14-6 28-16 39-11 10-25 16-40 16h-55z m277-55h-55v-56h55v56z m-55 55c-15 0-29-6-39-16-11-11-17-25-17-39v-56c0-15 6-29 17-39 10-11 24-17 39-17h55c15 0 29 6 40 17 10 10 16 24 16 39v56c0 14-6 28-16 39-11 10-25 16-40 16h-55z m-333 472c0 8 3 15 8 20 5 5 12 8 19 8h139v56h-139c-22 0-43-9-59-25-15-15-24-37-24-59v-666c0-22 9-44 24-59 16-16 37-25 59-25h563c-12 17-21 36-27 56h-536c-7 0-14 3-19 8-5 5-8 12-8 20v666z m722-446c18 3 37 3 55 0v446c0 22-8 44-24 59-16 16-37 25-59 25h-83v-56h83c7 0 14-3 20-8 5-5 8-12 8-20v-446z m-500 474h293v56h-293v-56z m555-194h-777v55h777v-55z m-666 305c0 8 3 15 8 20 5 5 12 8 19 8 8 0 15-3 20-8 5-5 8-12 8-20v-139c0-7-3-14-8-19-5-5-12-8-20-8-7 0-14 3-19 8-5 5-8 12-8 19v139z m389 0c0 8 3 15 8 20 5 5 12 8 19 8 8 0 15-3 20-8 5-5 8-12 8-20v-139c0-7-3-14-8-19-5-5-12-8-20-8-7 0-14 3-19 8-5 5-8 12-8 19v139z" horiz-adv-x="1000" />

<glyph glyph-name="facebook" unicode="&#xe80d;" d="M0 347c0-248 181-455 417-497v361h-125v139h125v111c0 125 80 195 194 195 36 0 75-6 111-11v-128h-64c-61 0-75-31-75-70v-97h134l-22-139h-112v-361c237 42 417 249 417 497 0 277-225 503-500 503-275 0-500-226-500-503z" horiz-adv-x="1000" />

<glyph glyph-name="info" unicode="&#xe80e;" d="M450 500h100v100h-100v-100z m50-550c-220 0-400 180-400 400 0 221 180 400 400 400 221 0 400-179 400-400 0-220-179-400-400-400z m0 900c-66 0-131-13-191-38-61-25-116-62-163-108-93-94-146-221-146-354 0-133 53-260 146-354 47-46 102-83 163-108 60-25 125-38 191-38 133 0 260 53 354 146 93 94 146 221 146 354 0 66-13 131-38 191-25 61-62 116-108 163-47 46-102 83-163 108-60 25-125 38-191 38v0z m-50-750h100v300h-100v-300z" horiz-adv-x="1000" />

<glyph glyph-name="instagram" unicode="&#xe80f;" d="M500 480c-72 0-130-58-130-130 0-72 58-130 130-130 72 0 130 58 130 130 0 72-58 130-130 130z m390-130c0 54 1 107-2 161-3 63-17 118-63 164-46 46-101 60-164 63-54 3-107 2-161 2-54 0-107 1-161-2-62-3-118-17-164-63-45-46-60-101-63-164-3-54-2-107-2-161 0-54-1-107 2-161 3-63 18-118 63-164 46-46 102-60 164-63 54-3 107-2 161-2 54 0 107-1 161 2 63 3 118 17 164 63 46 46 60 101 63 164 3 54 2 107 2 161v0z m-390-200c-111 0-200 89-200 200 0 111 89 200 200 200 111 0 200-89 200-200 0-111-89-200-200-200z m209 362c-26 0-47 21-47 47 0 25 21 46 47 46 25 0 46-21 46-46 0-7-1-13-3-18-3-6-6-11-10-16-5-4-10-7-16-10-5-2-11-3-17-3v0z" horiz-adv-x="1000" />

<glyph glyph-name="link" unicode="&#xe810;" d="M563 413l312 312m0 0h-208m208 0v-208m0-250v-209c0-22-9-43-24-59-16-15-37-24-59-24h-584c-22 0-43 9-59 24-15 16-24 37-24 59v584c0 22 9 43 24 59 16 15 37 24 59 24h209" horiz-adv-x="1000" />

<glyph glyph-name="lock" unicode="&#xe811;" d="M481 88c25 0 49 10 67 28 18 18 28 42 28 67 0 26-10 50-28 68-18 18-42 28-67 28-25 0-49-10-67-28-18-18-28-42-28-68 0-25 10-49 28-67 18-18 42-28 67-28z m286 429c25 0 49-10 67-28 18-18 28-42 28-68v-476c0-25-10-49-28-67-18-18-42-28-67-28h-572c-25 0-49 10-67 28-18 18-28 42-28 67v476c0 26 10 50 28 68 18 18 42 28 67 28h48v95c0 63 25 124 70 168 44 45 105 70 168 70 31 0 62-6 91-18 29-12 55-30 77-52 22-22 40-48 52-77 12-29 18-60 18-91v-95h48z m-286 238c-38 0-74-15-101-42-27-27-42-63-42-101v-95h286v95c0 38-15 74-42 101-27 27-63 42-101 42z" horiz-adv-x="1000" />

<glyph glyph-name="mail" unicode="&#xe812;" d="M900 550l-400-250-400 250v100l400-250 400 250v-100z m0 200h-800c-55 0-100-44-100-100v-600c0-26 11-52 29-71 19-19 45-29 71-29h800c27 0 52 10 71 29 19 19 29 45 29 71v600c0 27-10 52-29 71-19 19-44 29-71 29v0z" horiz-adv-x="1000" />

<glyph glyph-name="message" unicode="&#xe813;" d="M0 675v-437c0-69 56-125 125-125h250v-188l250 188h250c69 0 125 56 125 125v437c0 69-56 125-125 125h-750c-69 0-125-56-125-125z" horiz-adv-x="1000" />

<glyph glyph-name="activity" unicode="&#xe814;" d="M31 350h209l156-469 208 938 156-469h209" horiz-adv-x="1000" />

<glyph glyph-name="close" unicode="&#xe816;" d="M899 850l-399-399-399 399-101-101 399-399-399-399 101-101 399 399 399-399 101 101-399 399 399 399-101 101z" horiz-adv-x="1000" />

<glyph glyph-name="list" unicode="&#xe817;" d="M361 698h-83c-21 0-40-8-55-23-15-15-23-34-23-55v-625c0-21 8-41 23-56 15-14 34-22 55-22h469c21 0 41 8 55 22 15 15 23 35 23 56v625c0 21-8 40-23 55-14 15-34 23-55 23h-83c-5 15-15 28-28 38-13 9-29 14-45 14h-157c-16 0-32-5-45-14-13-10-23-23-28-38v0z m73 0h157c7 0 13-3 18-8 5-5 8-11 8-18 0-7-3-14-8-18-5-5-11-8-18-8h-157c-6 0-13 3-18 8-5 4-8 11-8 18 0 7 3 13 8 18 5 5 12 8 18 8v0z m26-286c0 6 3 13 8 18 5 5 12 8 19 8h182c7 0 13-3 18-8 5-5 8-12 8-18 0-7-3-14-8-19-5-5-11-8-18-8h-182c-7 0-14 3-19 8-5 5-8 12-8 19z m0-157c0 7 3 14 8 19 5 5 12 7 19 7h182c7 0 13-2 18-7 5-5 8-12 8-19 0-7-3-13-8-18-5-5-11-8-18-8h-182c-7 0-14 3-19 8-5 5-8 11-8 18z m0-156c0 7 3 14 8 18 5 5 12 8 19 8h182c7 0 13-3 18-8 5-4 8-11 8-18 0-7-3-14-8-18-5-5-11-8-18-8h-182c-7 0-14 3-19 8-5 4-8 11-8 18z m-52 313c0-11-4-21-11-28-7-7-17-12-28-12-10 0-20 5-27 12-8 7-12 17-12 28 0 10 4 20 12 27 7 7 17 12 27 12 11 0 21-5 28-12 7-7 11-17 11-27z m0-157c0-10-4-20-11-27-7-8-17-12-28-12-10 0-20 4-27 12-8 7-12 17-12 27 0 11 4 21 12 28 7 7 17 11 27 11 11 0 21-4 28-11 7-7 11-17 11-28z m-39-195c-10 0-20 4-27 11-8 8-12 18-12 28 0 10 4 20 12 28 7 7 17 11 27 11 11 0 21-4 28-11 7-8 11-18 11-28 0-10-4-20-11-28-7-7-17-11-28-11z" horiz-adv-x="1000" />

<glyph glyph-name="map" unicode="&#xe818;" d="M500 783c-121 0-219-98-219-220 0-98 143-277 198-342 11-14 31-14 42 0 55 65 198 244 198 342 0 122-98 220-219 220z m0-293c-40 0-73 33-73 73 0 41 33 74 73 74 40 0 73-33 73-74 0-40-33-73-73-73z m-465-84c-10-4-19-11-25-21-7-9-10-20-10-31l0-437c0-20 20-34 38-26l240 109v408c-16 28-28 55-37 81l-206-83z m465-251c-24 0-47 11-63 29-34 41-71 87-104 135v-318l334-112v430c-33-48-69-94-104-135-15-18-39-29-63-29z m462 347l-240-110v-503l243 97c10 4 19 12 25 21 7 9 10 20 10 31v438c0 20-20 33-38 26z" horiz-adv-x="1000" />

<glyph glyph-name="map-time" unicode="&#xe819;" d="M335 484c-53 0-104-22-141-59-38-38-59-88-59-141 0-54 21-104 59-142 37-37 88-58 141-58 53 0 104 21 142 58 37 38 58 88 58 142 0 53-21 103-58 141-38 37-89 59-142 59z m62-41c5 0 9-2 13-4 4-2 7-5 9-9 2-4 3-8 3-13 0-4-1-8-3-12l-69-120 72-46c3-2 5-4 7-7 2-3 3-6 4-9 1-3 1-7 0-10 0-3-2-6-3-9-2-3-5-5-7-7-3-2-6-3-9-4-3-1-7-1-10 0-3 1-6 2-9 4l-93 59c-5 4-9 9-10 15-2 7-1 13 2 19l81 140c2 4 6 7 10 9 3 3 8 4 12 4z m-372 340c-3 0-6 0-9-1-3-2-6-4-9-6-2-2-4-5-5-8-1-3-2-6-2-10v-703c0-4 1-9 4-13 3-4 6-7 11-9l316-147c4-2 7-3 11-3 4 0 7 1 10 3l306 142 307-142c3-2 8-3 12-3 4 1 8 2 12 4 3 2 6 6 8 9 2 4 3 8 3 12v703c0 5-1 10-4 14-2 4-6 7-10 9l-317 147c-3 2-7 2-11 2-3 0-7 0-10-2l-306-142-306 142c-4 2-7 2-11 2z m645-57l280-131v-648l-277 129-3 650z m-30-4l3-646-286-133-1 109c-10-1-20-1-30-1l1-108-277 128v648l273-126 0-80c10 0 20 0 30-1l0 77 287 133z" horiz-adv-x="1000" />

<glyph glyph-name="money" unicode="&#xe81a;" d="M768 176c0 178-145 198-262 214-127 18-199 33-199 143 0 92 96 125 179 125 41 1 82-7 119-25 37-18 70-44 95-76l60 48c-27 35-61 64-99 85-38 22-80 36-123 41v119h-77v-116c-139-9-231-87-231-201 0-182 147-202 266-219 125-17 196-32 196-138 0-116-121-134-193-134-132 0-187 37-239 101l-60-48c31-40 70-73 115-95 45-22 95-34 146-33v-117h77v117c143 12 230 90 230 209v0z" horiz-adv-x="1000" />

<glyph glyph-name="more" unicode="&#xe81b;" d="M492-150c-33 0-65 13-89 37-23 23-36 55-36 88 0 33 13 65 36 88 24 24 56 37 89 37 33 0 65-13 88-37 24-23 37-55 37-88 0-33-13-65-37-88-23-24-55-37-88-37z m0 375c-33 0-65 13-89 37-23 23-36 55-36 88 0 33 13 65 36 88 24 24 56 37 89 37 33 0 65-13 88-37 24-23 37-55 37-88 0-33-13-65-37-88-23-24-55-37-88-37z m0 375c-33 0-65 13-89 37-23 23-36 55-36 88 0 33 13 65 36 88 24 24 56 37 89 37 33 0 65-13 88-37 24-23 37-55 37-88 0-33-13-65-37-88-23-24-55-37-88-37z" horiz-adv-x="1000" />

<glyph glyph-name="notification" unicode="&#xe81c;" d="" horiz-adv-x="1000" />

<glyph glyph-name="people" unicode="&#xe81d;" d="M431 697c0 41-16 80-45 108-29 29-68 45-108 45-41 0-80-16-108-45-29-28-45-67-45-108 0-40 16-79 45-108 28-28 67-45 108-45 40 0 79 17 108 45 29 29 45 68 45 108z m-250 0c0 13 2 26 7 37 5 12 12 23 21 32 9 9 20 16 32 21 11 5 24 7 37 7 13 0 25-2 37-7 12-5 23-12 32-21 9-9 16-20 21-32 5-11 7-24 7-37 0-26-10-50-28-68-19-19-43-29-69-29-26 0-51 10-69 29-18 18-28 42-28 68z m-98-208h233c-9-17-16-36-20-56h-213c-7 0-14-3-19-8-5-5-8-12-8-19v-28c0-70 61-145 172-163-18-12-33-28-44-47-117 31-184 122-184 210v28c0 22 9 43 24 59 16 15 37 24 59 24z m299 0c28 34 71 55 118 55 33 1 66-10 92-30 27-20 46-49 55-81 8-28 8-59-1-87-9-28-26-53-49-72-23-19-51-31-80-34-30-3-60 2-86 15-21 11-38 26-52 44-14 18-24 39-29 62-4 22-4 45 2 67 5 23 16 43 30 61h0z m30-56c-5-11-8-24-9-36-1-13 1-26 5-38 5-12 11-23 20-33 9-9 19-17 30-22 12-6 24-9 37-9 13-1 26 1 38 5 12 4 23 11 32 20 10 8 18 19 23 30 11 23 12 50 4 74-9 25-27 45-50 56-24 11-50 12-75 3-24-8-44-26-55-50h0z m404-265c-11 19-26 35-44 47 111 18 172 93 172 163v28c0 7-2 14-8 19-5 5-12 8-19 8h-213c-4 20-10 38-20 56h233c22 0 43-9 59-24 15-16 24-37 24-59v-28c0-88-67-179-184-210z m-67-5c-14 13-34 20-55 20h-388c-11 0-22-2-32-6-10-4-20-10-27-18-8-8-14-17-18-27-5-10-7-21-7-32v-28c0-109 104-222 278-222 174 0 278 113 278 222v28c0 25-11 47-29 63z m-471-63c0 7 3 14 8 20 5 5 12 8 20 8h388c8 0 15-3 20-8 5-6 8-13 8-20v-28c0-80-79-166-222-166-143 0-222 86-222 166v28z m444 750c41 0 80-16 108-45 29-28 45-67 45-108 0-40-16-79-45-108-28-28-67-45-108-45-40 0-79 17-108 45-28 29-45 68-45 108 0 41 17 80 45 108 29 29 68 45 108 45z m0-56c-26 0-50-10-68-28-19-18-29-43-29-69 0-26 10-50 29-68 18-19 42-29 68-29 26 0 51 10 69 29 18 18 28 42 28 68 0 26-10 51-28 69-18 18-43 28-69 28z" horiz-adv-x="1000" />

<glyph glyph-name="terms" unicode="&#xe81e;" d="M400 500c0 27 11 52 29 71 19 19 45 29 71 29h200c27 0 52-10 71-29 19-19 29-44 29-71v-50c0-26-10-52-29-71-19-18-44-29-71-29h-200c-26 0-52 11-71 29-18 19-29 45-29 71v50z m100 25c-7 0-13-3-18-7-4-5-7-11-7-18v-50c0-7 3-13 7-18 5-4 11-7 18-7h200c7 0 13 3 18 7 4 5 7 11 7 18v50c0 7-3 13-7 18-5 4-11 7-18 7h-200z m-400 225c-26 0-52-10-71-29-18-19-29-44-29-71v-600c0-26 11-52 29-71 19-19 45-29 71-29h800c27 0 52 10 71 29 19 19 29 45 29 71v600c0 27-10 52-29 71-19 19-44 29-71 29h-800z m800-75c7 0 13-3 18-7 4-5 7-11 7-18v-600c0-7-3-13-7-18-5-4-11-7-18-7h-625v650h625z m-800 0h100v-650h-100c-7 0-13 3-18 7-4 5-7 11-7 18v600c0 7 3 13 7 18 5 4 11 7 18 7z" horiz-adv-x="1000" />

<glyph glyph-name="time-history" unicode="&#xe81f;" d="" horiz-adv-x="1000" />

<glyph glyph-name="filter" unicode="&#xe820;" d="M32 749c0 0 139 69 484 69 346 0 484-69 484-69l-380-450v-311l-208-103v414l-380 450z" horiz-adv-x="1032" />

<glyph glyph-name="location" unicode="&#xe821;" d="M40 762c-30 80 24 58 55 38 244-106 747-324 804-354 56-29 23-51 0-59-95-18-296-72-338-139-52-84-73-192-95-292-17-79-38-80-46-71-114 260-351 798-380 877z" horiz-adv-x="969" />

<glyph glyph-name="play" unicode="&#xe822;" d="M733 386l-355 216c-31 18-71-5-71-42v-420c0-37 39-60 71-42l355 204c33 18 33 66 0 84z m267-36c0 276-224 500-500 500-276 0-500-224-500-500 0-276 224-500 500-500 276 0 500 224 500 500z m-903 0c0 223 180 403 403 403 223 0 403-180 403-403 0-223-180-403-403-403-223 0-403 180-403 403z" horiz-adv-x="1000" />

<glyph glyph-name="stop" unicode="&#xe824;" d="M1000 350c0 276-224 500-500 500-276 0-500-224-500-500 0-276 224-500 500-500 276 0 500 224 500 500z m-903 0c0 223 180 403 403 403 223 0 403-180 403-403 0-223-180-403-403-403-223 0-403 180-403 403z m597 161v-322c0-18-15-33-33-33h-322c-18 0-32 15-32 33v322c0 18 14 33 32 33h322c18 0 33-15 33-33z" horiz-adv-x="1000" />

<glyph glyph-name="edit" unicode="&#xe825;" d="M901 688c0 43-17 84-48 114-30 31-71 48-115 48h-575c-43 0-85-17-115-48-31-30-48-71-48-114v-575c0-43 17-85 48-115 30-31 72-48 115-48h246l18 71 1 4h-265c-23 0-46 9-62 26-17 16-26 38-26 62v462h751v-137c24 10 50 14 75 11v239 0z m-738 87h575c49 0 88-39 88-87v-38h-751v38c0 48 39 87 88 87h0z m643-408l-295-295c-18-18-30-39-36-63l-23-91c-10-40 26-76 66-66l92 23c24 5 45 18 62 35l296 295c21 22 32 51 32 81 0 30-12 58-33 79-22 22-50 34-81 34-30 0-58-11-80-32l0 0z" horiz-adv-x="1000" />

<glyph glyph-name="edit-image" unicode="&#xe826;" d="M900 688c0 43-17 84-48 114-30 31-71 48-115 48h-574c-44 0-85-17-115-48-31-30-48-71-48-114v-575c0-43 17-85 48-115 30-31 71-48 115-48h245l18 71 1 4h-264c-11 0-20 2-30 5l291 284 4 4c7 5 16 8 25 7 9-1 17-4 23-11l104-101 53 53-104 102-7 6c-21 18-48 27-76 26-28-1-55-13-75-32l-291-285c-3 9-5 20-5 30v575c0 48 39 87 88 87h574c49 0 88-39 88-87v-250c24 10 50 14 75 11v239h0z m-175-126c0 30-12 59-33 80-21 21-50 33-79 33-30 0-59-12-80-33-21-21-33-50-33-80 0-29 12-58 33-79 21-21 50-33 80-33 29 0 58 12 79 33 21 21 33 50 33 79v0z m-150 0c0 10 4 20 11 27 7 7 17 11 27 11 10 0 19-4 26-11 7-7 11-17 11-27 0-10-4-19-11-26-7-7-16-11-26-11-10 0-20 4-27 11-7 7-11 16-11 26z m230-195l-295-295c-17-18-30-39-35-63l-23-91c-10-40 26-76 66-66l91 23c24 5 45 18 62 35l296 295c20 22 32 51 32 81 0 30-13 58-34 79-21 22-50 34-80 34-30 0-59-11-80-32l0 0z" horiz-adv-x="1000" />

<glyph glyph-name="edit-location" unicode="&#xe827;" d="M450 683c-68 0-124-58-124-131 0-58 81-165 112-204 6-8 18-8 24 0 31 39 112 146 112 204 0 73-55 131-124 131z m0-175c-23 0-41 20-41 44 0 24 18 44 41 44 23 0 41-20 41-44 0-24-18-44-41-44z m-263-50c-6-2-11-6-15-12-3-5-5-12-5-19v-260c0-12 11-20 21-16l136 66v243c-9 16-16 32-21 48l-116-50z m263-149c-14 0-27 6-36 17-19 25-40 52-58 80v-189l188-67v256c-18-28-39-55-58-80-9-11-22-17-36-17z m262 207l-136-66v-300l138 58c5 3 10 7 14 13 3 5 5 12 5 18v261c0 12-11 20-21 16z m93-149l-295-295c-17-18-30-39-35-63l-23-91c-10-40 26-76 66-66l91 23c24 5 45 18 62 35l296 295c20 22 32 51 32 81 0 30-13 58-34 79-21 22-50 34-80 34-30 0-59-11-80-32l0 0z m95 321c0 43-17 84-48 114-30 31-71 48-115 48h-574c-44 0-85-17-115-48-31-30-48-71-48-114v-575c0-43 17-85 48-115 30-31 71-48 115-48h245l18 71 1 4h-264c-46 0-88 47-88 88v575c0 48 39 87 88 87h574c49 0 88-39 88-87v-250c24 10 50 14 75 11v239h0z" horiz-adv-x="1000" />

<glyph glyph-name="edit-video" unicode="&#xe828;" d="M805 367l-295-295c-17-18-30-39-35-63l-23-91c-10-40 26-76 66-66l91 23c24 5 45 18 62 35l296 295c20 22 32 51 32 81 0 30-13 58-34 79-21 22-50 34-80 34-30 0-59-11-80-32l0 0z m95 321c0 43-17 84-48 114-30 31-71 48-115 48h-574c-44 0-85-17-115-48-31-30-48-71-48-114v-575c0-43 17-85 48-115 30-31 71-48 115-48h245l18 71 1 4h-264c-46 0-88 47-88 88v575c0 48 39 87 88 87h574c49 0 88-39 88-87v-250c24 10 50 14 75 11v239h0z m-634-71c-27 0-52-11-70-29-19-18-29-43-29-69v-272c0-26 10-50 29-68 18-19 43-29 70-29h277c26 0 51 10 70 29 18 18 29 42 29 68v38l94-72c26-20 64-2 64 30v280c0 33-38 51-64 31l-94-72v37c0 26-11 51-29 69-19 18-44 29-70 29h-277z m376-185l118 91v-280l-118 92v97z m-40 87v-272c0-7-1-15-4-22-3-7-8-14-13-19-6-5-12-10-20-13-7-3-14-4-22-4h-277c-16 0-31 6-42 17-11 11-18 26-18 41v272c0 16 7 31 18 42 11 11 26 17 42 17h277c8 0 15-2 22-5 8-3 14-7 20-12 5-6 10-12 13-19 3-7 4-15 4-23z" horiz-adv-x="1000" />

<glyph glyph-name="search-1" unicode="&#xe82a;" d="M969-119l-222 222 222-222z m-99 518c0-111-44-218-123-296-78-79-185-123-296-123-112 0-218 44-297 123-79 78-123 185-123 296 0 112 44 218 123 297 79 79 185 123 297 123 111 0 218-44 296-123 79-79 123-185 123-297v0z" horiz-adv-x="1000" />
</font>
</defs>
</svg>
